<svg width="481" height="287" viewBox="0 0 481 287" fill="none" xmlns="http://www.w3.org/2000/svg">
<rect width="481" height="286.58" fill="#373737"/>
<path d="M421.355 154.673V151.344C420.188 151.985 418.93 152.553 417.583 153.046C416.251 153.539 414.862 153.958 413.416 154.303C411.97 154.648 410.474 154.903 408.929 155.067C407.4 155.248 405.855 155.338 404.294 155.338C402.47 155.338 400.703 155.166 398.993 154.821C397.301 154.476 395.797 153.917 394.482 153.144C393.167 152.372 392.107 151.361 391.301 150.112C390.512 148.863 390.118 147.334 390.118 145.526C390.118 143.241 390.742 141.343 391.992 139.831C393.241 138.302 395.147 137.053 397.711 136.084C400.275 135.114 403.513 134.366 407.425 133.84C411.353 133.314 415.997 132.903 421.355 132.607V131.892C421.355 131.334 421.207 130.783 420.911 130.241C420.615 129.682 420.073 129.197 419.284 128.786C418.511 128.359 417.443 128.013 416.079 127.75C414.731 127.487 413.005 127.356 410.901 127.356C409.241 127.356 407.598 127.446 405.971 127.627C404.36 127.792 402.798 128.022 401.286 128.318C399.791 128.613 398.369 128.959 397.021 129.353C395.673 129.747 394.449 130.158 393.348 130.586V122.45C394.498 122.154 395.788 121.866 397.218 121.587C398.648 121.308 400.136 121.069 401.681 120.872C403.226 120.658 404.787 120.494 406.365 120.379C407.943 120.247 409.455 120.182 410.901 120.182C413.745 120.182 416.366 120.42 418.766 120.897C421.166 121.357 423.228 122.08 424.954 123.066C426.696 124.052 428.052 125.301 429.022 126.814C430.008 128.326 430.501 130.125 430.501 132.213V154.673H421.355ZM421.355 139.215C417.837 139.346 414.846 139.535 412.381 139.782C409.932 140.028 407.894 140.316 406.266 140.645C404.639 140.973 403.357 141.327 402.42 141.705C401.5 142.083 400.81 142.469 400.349 142.863C399.889 143.258 399.602 143.652 399.487 144.047C399.388 144.441 399.339 144.803 399.339 145.132C399.339 145.526 399.445 145.912 399.659 146.29C399.873 146.652 400.243 146.972 400.769 147.252C401.311 147.531 402.026 147.753 402.913 147.918C403.801 148.082 404.919 148.164 406.266 148.164C407.762 148.164 409.225 148.049 410.655 147.819C412.085 147.589 413.441 147.277 414.723 146.882C416.005 146.471 417.205 145.995 418.322 145.452C419.456 144.893 420.467 144.302 421.355 143.677V139.215Z" fill="white"/>
<path d="M369.801 154.674H359.15L342.016 120.799H352.223L364.55 146.291L376.852 120.799H387.059L369.801 154.674Z" fill="white"/>
<path d="M327.294 154.674V120.799H336.441V154.674H327.294Z" fill="white"/>
<path d="M306.832 128.17V154.674H297.685V128.17H283.312V120.799H321.23V128.17H306.832Z" fill="white"/>
<path d="M279.318 152.355C278.135 152.848 276.943 153.292 275.743 153.686C274.543 154.081 273.303 154.417 272.021 154.697C270.739 154.993 269.383 155.215 267.953 155.363C266.539 155.51 265.019 155.584 263.392 155.584C259.94 155.584 256.76 155.215 253.85 154.475C250.958 153.735 248.459 152.626 246.356 151.147C244.268 149.651 242.641 147.794 241.474 145.575C240.307 143.34 239.724 140.734 239.724 137.76C239.724 134.785 240.307 132.188 241.474 129.969C242.641 127.733 244.268 125.876 246.356 124.397C248.459 122.901 250.958 121.784 253.85 121.044C256.76 120.304 259.94 119.935 263.392 119.935C265.019 119.935 266.539 120.009 267.953 120.156C269.383 120.304 270.739 120.526 272.021 120.822C273.303 121.102 274.543 121.438 275.743 121.833C276.943 122.227 278.135 122.671 279.318 123.164V131.399C278.381 130.889 277.395 130.388 276.36 129.895C275.324 129.385 274.182 128.933 272.933 128.539C271.684 128.128 270.311 127.799 268.816 127.553C267.32 127.29 265.635 127.158 263.761 127.158C260.885 127.158 258.494 127.454 256.587 128.046C254.697 128.637 253.185 129.426 252.051 130.413C250.917 131.399 250.119 132.533 249.659 133.815C249.199 135.08 248.969 136.395 248.969 137.76C248.969 138.663 249.068 139.559 249.265 140.447C249.462 141.318 249.791 142.148 250.251 142.937C250.711 143.709 251.311 144.424 252.051 145.082C252.79 145.739 253.711 146.306 254.812 146.783C255.913 147.26 257.195 147.638 258.658 147.917C260.137 148.18 261.838 148.311 263.761 148.311C265.635 148.311 267.32 148.196 268.816 147.966C270.311 147.72 271.684 147.399 272.933 147.005C274.182 146.61 275.324 146.167 276.36 145.673C277.395 145.164 278.381 144.646 279.318 144.12V152.355Z" fill="white"/>
<path d="M230.895 152.996C228.118 153.916 225.34 154.574 222.562 154.968C219.801 155.379 216.974 155.584 214.081 155.584C210.383 155.584 207.088 155.19 204.195 154.401C201.318 153.596 198.894 152.437 196.922 150.925C194.95 149.413 193.446 147.564 192.41 145.378C191.375 143.192 190.857 140.718 190.857 137.957C190.857 135.393 191.375 133.018 192.41 130.832C193.462 128.629 194.941 126.723 196.848 125.112C198.771 123.485 201.088 122.219 203.8 121.315C206.512 120.395 209.537 119.935 212.873 119.935C215.947 119.935 218.757 120.354 221.305 121.192C223.869 122.014 226.063 123.238 227.887 124.865C229.728 126.493 231.15 128.498 232.153 130.881C233.172 133.264 233.681 136.009 233.681 139.115V141.384H200.299C200.595 142.452 201.08 143.43 201.754 144.318C202.444 145.205 203.373 145.961 204.54 146.586C205.707 147.21 207.137 147.695 208.83 148.04C210.539 148.385 212.577 148.558 214.944 148.558C216.621 148.558 218.264 148.459 219.875 148.262C221.486 148.049 222.989 147.777 224.387 147.449C225.784 147.103 227.041 146.725 228.159 146.314C229.293 145.904 230.205 145.493 230.895 145.082V152.996ZM224.584 134.678C224.502 133.84 224.247 132.977 223.82 132.089C223.409 131.185 222.751 130.371 221.847 129.648C220.943 128.925 219.76 128.333 218.297 127.873C216.834 127.397 215.01 127.158 212.824 127.158C210.769 127.158 208.994 127.413 207.498 127.923C206.003 128.432 204.745 129.065 203.726 129.821C202.724 130.577 201.943 131.391 201.384 132.262C200.825 133.133 200.464 133.938 200.299 134.678H224.584Z" fill="white"/>
<path d="M161.203 140.177C161.203 141.59 161.334 142.749 161.597 143.653C161.86 144.541 162.288 145.248 162.879 145.773C163.471 146.299 164.235 146.661 165.172 146.858C166.125 147.055 167.292 147.154 168.673 147.154H186.03V154.674H166.799C164.137 154.674 161.868 154.46 159.995 154.033C158.138 153.589 156.617 152.915 155.434 152.011C154.25 151.091 153.387 149.932 152.845 148.535C152.319 147.138 152.056 145.478 152.056 143.555V120.799H161.203V140.177Z" fill="white"/>
<path d="M143.718 137.76C143.718 140.669 143.184 143.241 142.115 145.476C141.047 147.695 139.519 149.552 137.53 151.048C135.541 152.544 133.125 153.678 130.281 154.45C127.454 155.206 124.274 155.584 120.74 155.584C117.207 155.584 114.01 155.206 111.15 154.45C108.306 153.678 105.882 152.544 103.877 151.048C101.872 149.552 100.327 147.695 99.2419 145.476C98.1571 143.241 97.6147 140.669 97.6147 137.76C97.6147 134.85 98.1571 132.286 99.2419 130.067C100.327 127.832 101.872 125.967 103.877 124.471C105.882 122.975 108.306 121.849 111.15 121.093C114.01 120.321 117.207 119.935 120.74 119.935C124.274 119.935 127.454 120.321 130.281 121.093C133.125 121.849 135.541 122.975 137.53 124.471C139.519 125.967 141.047 127.832 142.115 130.067C143.184 132.286 143.718 134.85 143.718 137.76ZM134.473 137.76C134.473 136.494 134.267 135.237 133.856 133.987C133.462 132.722 132.747 131.588 131.711 130.585C130.692 129.583 129.295 128.769 127.52 128.144C125.745 127.52 123.485 127.208 120.74 127.208C118.899 127.208 117.281 127.355 115.883 127.651C114.486 127.931 113.278 128.325 112.259 128.835C111.24 129.344 110.386 129.944 109.695 130.634C109.005 131.308 108.454 132.04 108.043 132.829C107.633 133.601 107.337 134.415 107.156 135.269C106.992 136.108 106.909 136.938 106.909 137.76C106.909 138.598 106.992 139.444 107.156 140.299C107.337 141.154 107.633 141.975 108.043 142.764C108.454 143.537 109.005 144.26 109.695 144.934C110.386 145.608 111.24 146.199 112.259 146.709C113.278 147.202 114.486 147.597 115.883 147.892C117.281 148.172 118.899 148.311 120.74 148.311C123.485 148.311 125.745 147.999 127.52 147.375C129.295 146.75 130.692 145.936 131.711 144.934C132.747 143.931 133.462 142.805 133.856 141.556C134.267 140.291 134.473 139.025 134.473 137.76Z" fill="white"/>
<path d="M91.3558 152.355C90.1724 152.848 88.9808 153.292 87.7809 153.686C86.5811 154.081 85.3402 154.417 84.0582 154.697C82.7761 154.993 81.4202 155.215 79.9902 155.363C78.5767 155.51 77.0564 155.584 75.4292 155.584C71.9776 155.584 68.7972 155.215 65.8881 154.475C62.9953 153.735 60.497 152.626 58.3932 151.147C56.3058 149.651 54.6786 147.794 53.5117 145.575C52.3447 143.34 51.7612 140.734 51.7612 137.76C51.7612 134.785 52.3447 132.188 53.5117 129.969C54.6786 127.733 56.3058 125.876 58.3932 124.397C60.497 122.901 62.9953 121.784 65.8881 121.044C68.7972 120.304 71.9776 119.935 75.4292 119.935C77.0564 119.935 78.5767 120.009 79.9902 120.156C81.4202 120.304 82.7761 120.526 84.0582 120.822C85.3402 121.102 86.5811 121.438 87.7809 121.833C88.9808 122.227 90.1724 122.671 91.3558 123.164V131.399C90.4189 130.889 89.4328 130.388 88.3973 129.895C87.3618 129.385 86.2195 128.933 84.9704 128.539C83.7212 128.128 82.3488 127.799 80.8531 127.553C79.3574 127.29 77.6727 127.158 75.799 127.158C72.9227 127.158 70.5312 127.454 68.6247 128.046C66.7345 128.637 65.2224 129.426 64.0883 130.413C62.9542 131.399 62.1571 132.533 61.6968 133.815C61.2366 135.08 61.0065 136.395 61.0065 137.76C61.0065 138.663 61.1052 139.559 61.3024 140.447C61.4996 141.318 61.8283 142.148 62.2885 142.937C62.7488 143.709 63.3487 144.424 64.0883 145.082C64.8279 145.739 65.7483 146.306 66.8496 146.783C67.9508 147.26 69.2328 147.638 70.6956 147.917C72.1749 148.18 73.876 148.311 75.799 148.311C77.6727 148.311 79.3574 148.196 80.8531 147.966C82.3488 147.72 83.7212 147.399 84.9704 147.005C86.2195 146.61 87.3618 146.167 88.3973 145.673C89.4328 145.164 90.4189 144.646 91.3558 144.12V152.355Z" fill="white"/>
</svg>
